{
  "accessors": [
    {
      "bufferView": 2,
      "componentType": 5126,
      "count": 8383,
      "max": [
        1.1372874975204468,
        0.13911834359169006,
        -0.14703597128391266
      ],
      "min": [
        0.7934595942497253,
        -0.6084655523300171,
        -0.734552800655365
      ],
      "type": "VEC3"
    },
    {
      "bufferView": 2,
      "byteOffset": 100596,
      "componentType": 5126,
      "count": 8383,
      "max": [
        0.9996586441993713,
        0.9990407228469849,
        0.9994979500770569
      ],
      "min": [
        -0.9999934434890747,
        -0.9996351003646851,
        -0.9999278783798218
      ],
      "type": "VEC3"
    },
    {
      "bufferView": 3,
      "componentType": 5126,
      "count": 8383,
      "max": [
        0.9803921580314636,
        0.6470588445663452,
        0.364705890417099,
        1.0
      ],
      "min": [
        0.7137255072593689,
        0.45098039507865906,
        0.09803921729326248,
        1.0
      ],
      "type": "VEC4"
    },
    {
      "bufferView": 1,
      "componentType": 5126,
      "count": 8383,
      "max": [
        1.0,
        1.0
      ],
      "min": [
        0.0,
        0.0
      ],
      "type": "VEC2"
    },
    {
      "bufferView": 0,
      "componentType": 5125,
      "count": 48384,
      "type": "SCALAR"
    },
    {
      "bufferView": 2,
      "byteOffset": 201192,
      "componentType": 5126,
      "count": 15726,
      "max": [
        1.183220386505127,
        1.61319899559021,
        0.7573444247245789
      ],
      "min": [
        -0.22133100032806396,
        0.46236926317214966,
        -0.7698180079460144
      ],
      "type": "VEC3"
    },
    {
      "bufferView": 2,
      "byteOffset": 389904,
      "componentType": 5126,
      "count": 15726,
      "max": [
        0.9999232292175293,
        0.9998065233230591,
        0.998874843120575
      ],
      "min": [
        -0.999976396560669,
        -0.999991774559021,
        -0.999267578125
      ],
      "type": "VEC3"
    },
    {
      "bufferView": 3,
      "byteOffset": 134128,
      "componentType": 5126,
      "count": 15726,
      "max": [
        0.9960784316062927,
        0.9137254953384399,
        0.6705882549285889,
        1.0
      ],
      "min": [
        0.8980392217636108,
        0.5137255191802979,
        0.0941176488995552,
        1.0
      ],
      "type": "VEC4"
    },
    {
      "bufferView": 0,
      "byteOffset": 193536,
      "componentType": 5125,
      "count": 94344,
      "type": "SCALAR"
    },
    {
      "bufferView": 2,
      "byteOffset": 578616,
      "componentType": 5126,
      "count": 259,
      "max": [
        1.509618878364563,
        0.2309686541557312,
        0.019104350358247757
      ],
      "min": [
        1.397403359413147,
        0.11162929236888885,
        -0.06932643800973892
      ],
      "type": "VEC3"
    },
    {
      "bufferView": 2,
      "byteOffset": 581724,
      "componentType": 5126,
      "count": 259,
      "max": [
        0.9976242780685425,
        0.9781965017318726,
        0.9974455833435059
      ],
      "min": [
        -0.9987891316413879,
        -0.9425641298294067,
        -0.9830042719841003
      ],
      "type": "VEC3"
    },
    {
      "bufferView": 3,
      "byteOffset": 385744,
      "componentType": 5126,
      "count": 259,
      "max": [
        0.32156863808631897,
        0.24313725531101227,
        0.16862745583057404,
        1.0
      ],
      "min": [
        0.32156863808631897,
        0.24313725531101227,
        0.16862745583057404,
        1.0
      ],
      "type": "VEC4"
    },
    {
      "bufferView": 0,
      "byteOffset": 570912,
      "componentType": 5125,
      "count": 1080,
      "type": "SCALAR"
    },
    {
      "bufferView": 2,
      "byteOffset": 584832,
      "componentType": 5126,
      "count": 584,
      "max": [
        1.5298696756362915,
        0.3458622097969055,
        0.2733042240142822
      ],
      "min": [
        1.3653961420059204,
        -0.1667758971452713,
        -0.12495525926351547
      ],
      "type": "VEC3"
    },
    {
      "bufferView": 2,
      "byteOffset": 591840,
      "componentType": 5126,
      "count": 584,
      "max": [
        0.9997268915176392,
        0.998907208442688,
        0.9971431493759155
      ],
      "min": [
        -0.9998037815093994,
        -0.9909678101539612,
        -0.999824047088623
      ],
      "type": "VEC3"
    },
    {
      "bufferView": 3,
      "byteOffset": 389888,
      "componentType": 5126,
      "count": 584,
      "max": [
        0.32156863808631897,
        0.24313725531101227,
        0.16862745583057404,
        1.0
      ],
      "min": [
        0.32156863808631897,
        0.24313725531101227,
        0.16862745583057404,
        1.0
      ],
      "type": "VEC4"
    },
    {
      "bufferView": 0,
      "byteOffset": 575232,
      "componentType": 5125,
      "count": 3060,
      "type": "SCALAR"
    },
    {
      "bufferView": 2,
      "byteOffset": 598848,
      "componentType": 5126,
      "count": 33844,
      "max": [
        0.9839187860488892,
        1.1194427013397217,
        1.1713645458221436
      ],
      "min": [
        -0.6635982990264893,
        -1.108420729637146,
        -0.6325134038925171
      ],
      "type": "VEC3"
    },
    {
      "bufferView": 2,
      "byteOffset": 1004976,
      "componentType": 5126,
      "count": 33844,
      "max": [
        0.7539485096931458,
        0.9999375343322754,
        0.9999769926071167
      ],
      "min": [
        -0.9999699592590332,
        -0.9998998045921326,
        -0.9998279213905334
      ],
      "type": "VEC3"
    },
    {
      "bufferView": 3,
      "byteOffset": 399232,
      "componentType": 5126,
      "count": 33844,
      "max": [
        0.9960784316062927,
        0.8627451062202454,
        0.4745098054409027,
        1.0
      ],
      "min": [
        0.4941176474094391,
        0.2549019753932953,
        0.027450980618596077,
        1.0
      ],
      "type": "VEC4"
    },
    {
      "bufferView": 0,
      "byteOffset": 587472,
      "componentType": 5125,
      "count": 202020,
      "type": "SCALAR"
    },
    {
      "bufferView": 2,
      "byteOffset": 1411104,
      "componentType": 5126,
      "count": 12553,
      "max": [
        1.507800579071045,
        0.7072168588638306,
        0.81153804063797
      ],
      "min": [
        0.6934917569160461,
        -0.8337641358375549,
        -0.5963922142982483
      ],
      "type": "VEC3"
    },
    {
      "bufferView": 2,
      "byteOffset": 1561740,
      "componentType": 5126,
      "count": 12553,
      "max": [
        0.9999696612358093,
        0.9867080450057983,
        0.9999576807022095
      ],
      "min": [
        -0.6426088213920593,
        -0.9999681711196899,
        -0.9999964833259583
      ],
      "type": "VEC3"
    },
    {
      "bufferView": 3,
      "byteOffset": 940736,
      "componentType": 5126,
      "count": 12553,
      "max": [
        0.9960784316062927,
        0.6470588445663452,
        0.364705890417099,
        1.0
      ],
      "min": [
        0.49803921580314636,
        0.25882354378700256,
        0.027450980618596077,
        1.0
      ],
      "type": "VEC4"
    },
    {
      "bufferView": 0,
      "byteOffset": 1395552,
      "componentType": 5125,
      "count": 74274,
      "type": "SCALAR"
    },
    {
      "bufferView": 2,
      "byteOffset": 1712376,
      "componentType": 5126,
      "count": 441,
      "max": [
        1.3349130153656006,
        2.108605146408081,
        1.2298301458358765
      ],
      "min": [
        -1.392687201499939,
        -1.804638147354126,
        -1.4484034776687622
      ],
      "type": "VEC3"
    },
    {
      "bufferView": 2,
      "byteOffset": 1717668,
      "componentType": 5126,
      "count": 441,
      "max": [
        0.9628017544746399,
        0.994522213935852,
        0.9999319911003113
      ],
      "min": [
        -0.9730468392372131,
        -0.9898243546485901,
        -0.9957010746002197
      ],
      "type": "VEC3"
    },
    {
      "bufferView": 3,
      "byteOffset": 1141584,
      "componentType": 5126,
      "count": 441,
      "max": [
        0.9725490212440491,
        0.9058823585510254,
        0.6784313917160034,
        1.0
      ],
      "min": [
        0.6274510025978088,
        0.38823530077934265,
        0.03529411926865578,
        1.0
      ],
      "type": "VEC4"
    },
    {
      "bufferView": 1,
      "byteOffset": 67064,
      "componentType": 5126,
      "count": 441,
      "max": [
        0.990880012512207,
        0.7431600093841553
      ],
      "min": [
        0.009109999984502792,
        0.006829999852925539
      ],
      "type": "VEC2"
    },
    {
      "bufferView": 0,
      "byteOffset": 1692648,
      "componentType": 5125,
      "count": 2304,
      "type": "SCALAR"
    }
  ],
  "asset": {
    "extras": {
      "author": "lumhuimin (https://sketchfab.com/lumhuimin)",
      "license": "CC-BY-4.0 (http://creativecommons.org/licenses/by/4.0/)",
      "source": "https://sketchfab.com/3d-models/cat-on-a-bread-1bc4f5a45eec4aee92459e12d357afda",
      "title": "Cat on a bread"
    },
    "generator": "Sketchfab-12.66.0",
    "version": "2.0"
  },
  "bufferViews": [
    {
      "buffer": 0,
      "byteLength": 1701864,
      "name": "floatBufferViews",
      "target": 34963
    },
    {
      "buffer": 0,
      "byteLength": 70592,
      "byteOffset": 1701864,
      "byteStride": 8,
      "name": "floatBufferViews",
      "target": 34962
    },
    {
      "buffer": 0,
      "byteLength": 1722960,
      "byteOffset": 1772456,
      "byteStride": 12,
      "name": "floatBufferViews",
      "target": 34962
    },
    {
      "buffer": 0,
      "byteLength": 1148640,
      "byteOffset": 3495416,
      "byteStride": 16,
      "name": "floatBufferViews",
      "target": 34962
    }
  ],
  "buffers": [
    {
      "byteLength": 4644056,
      "uri": "scene.bin"
    }
  ],
  "extensionsRequired": [
    "KHR_materials_pbrSpecularGlossiness"
  ],
  "extensionsUsed": [
    "KHR_materials_pbrSpecularGlossiness"
  ],
  "materials": [
    {
      "doubleSided": true,
      "extensions": {
        "KHR_materials_pbrSpecularGlossiness": {
          "diffuseFactor": [
            0.8,
            0.8,
            0.8,
            1.0
          ],
          "glossinessFactor": 0.0,
          "specularFactor": [
            0.0,
            0.0,
            0.0
          ]
        }
      },
      "name": "defaultMat"
    },
    {
      "doubleSided": true,
      "extensions": {
        "KHR_materials_pbrSpecularGlossiness": {
          "diffuseFactor": [
            1.0,
            1.0,
            1.0,
            1.0
          ],
          "glossinessFactor": 0.4,
          "specularFactor": [
            0.0,
            0.0,
            0.0
          ]
        }
      },
      "name": "material_0"
    },
    {
      "doubleSided": true,
      "extensions": {
        "KHR_materials_pbrSpecularGlossiness": {
          "diffuseFactor": [
            1.0,
            1.0,
            1.0,
            1.0
          ],
          "glossinessFactor": 0.4,
          "specularFactor": [
            0.0,
            0.0,
            0.0
          ]
        }
      },
      "name": "material_1"
    },
    {
      "doubleSided": true,
      "extensions": {
        "KHR_materials_pbrSpecularGlossiness": {
          "diffuseFactor": [
            1.0,
            1.0,
            1.0,
            1.0
          ],
          "glossinessFactor": 0.4,
          "specularFactor": [
            0.0,
            0.0,
            0.0
          ]
        }
      },
      "name": "material_2"
    },
    {
      "doubleSided": true,
      "extensions": {
        "KHR_materials_pbrSpecularGlossiness": {
          "diffuseFactor": [
            1.0,
            1.0,
            1.0,
            1.0
          ],
          "glossinessFactor": 0.4,
          "specularFactor": [
            0.0,
            0.0,
            0.0
          ]
        }
      },
      "name": "material_3"
    },
    {
      "doubleSided": true,
      "extensions": {
        "KHR_materials_pbrSpecularGlossiness": {
          "diffuseFactor": [
            0.8,
            0.8,
            0.8,
            1.0
          ],
          "glossinessFactor": 0.0,
          "specularFactor": [
            0.0,
            0.0,
            0.0
          ]
        }
      },
      "name": "defaultMat_0"
    }
  ],
  "meshes": [
    {
      "name": "Object_0",
      "primitives": [
        {
          "attributes": {
            "COLOR_0": 2,
            "NORMAL": 1,
            "POSITION": 0,
            "TEXCOORD_0": 3
          },
          "indices": 4,
          "material": 5,
          "mode": 4
        }
      ]
    },
    {
      "name": "Object_1",
      "primitives": [
        {
          "attributes": {
            "COLOR_0": 7,
            "NORMAL": 6,
            "POSITION": 5
          },
          "indices": 8,
          "material": 4,
          "mode": 4
        }
      ]
    },
    {
      "name": "Object_2",
      "primitives": [
        {
          "attributes": {
            "COLOR_0": 11,
            "NORMAL": 10,
            "POSITION": 9
          },
          "indices": 12,
          "material": 3,
          "mode": 4
        }
      ]
    },
    {
      "name": "Object_3",
      "primitives": [
        {
          "attributes": {
            "COLOR_0": 15,
            "NORMAL": 14,
            "POSITION": 13
          },
          "indices": 16,
          "material": 2,
          "mode": 4
        }
      ]
    },
    {
      "name": "Object_4",
      "primitives": [
        {
          "attributes": {
            "COLOR_0": 19,
            "NORMAL": 18,
            "POSITION": 17
          },
          "indices": 20,
          "material": 1,
          "mode": 4
        }
      ]
    },
    {
      "name": "Object_5",
      "primitives": [
        {
          "attributes": {
            "COLOR_0": 23,
            "NORMAL": 22,
            "POSITION": 21
          },
          "indices": 24,
          "material": 1,
          "mode": 4
        }
      ]
    },
    {
      "name": "Object_6",
      "primitives": [
        {
          "attributes": {
            "COLOR_0": 27,
            "NORMAL": 26,
            "POSITION": 25,
            "TEXCOORD_0": 28
          },
          "indices": 29,
          "material": 0,
          "mode": 4
        }
      ]
    }
  ],
  "nodes": [
    {
      "children": [
        1
      ],
      "matrix": [
        1.0,
        0.0,
        0.0,
        0.0,
        0.0,
        2.220446049250313e-16,
        -1.0,
        0.0,
        0.0,
        1.0,
        2.220446049250313e-16,
        0.0,
        0.0,
        0.0,
        0.0,
        1.0
      ],
      "name": "Sketchfab_model"
    },
    {
      "children": [
        2,
        4,
        6,
        8,
        10,
        13
      ],
      "name": "zbrush_concat.osgb.cleaner.materialmerger.gles"
    },
    {
      "children": [
        3
      ],
      "name": "/sketchfab-data/processing/models/1ff60ef1627047a7adfe47357b5822d1/1bc4f5a45eec4aee92459e12d357afda/a35c63e651b540c8a18580e984240c0d/preprocess/SubTool-5-12196137.OBJ"
    },
    {
      "mesh": 0,
      "name": "Object_3"
    },
    {
      "children": [
        5
      ],
      "name": "/sketchfab-data/processing/models/1ff60ef1627047a7adfe47357b5822d1/1bc4f5a45eec4aee92459e12d357afda/a35c63e651b540c8a18580e984240c0d/preprocess/SubTool-4-941840.OBJ"
    },
    {
      "mesh": 1,
      "name": "Object_5"
    },
    {
      "children": [
        7
      ],
      "name": "/sketchfab-data/processing/models/1ff60ef1627047a7adfe47357b5822d1/1bc4f5a45eec4aee92459e12d357afda/a35c63e651b540c8a18580e984240c0d/preprocess/SubTool-3-7229024.OBJ"
    },
    {
      "mesh": 2,
      "name": "Object_7"
    },
    {
      "children": [
        9
      ],
      "name": "/sketchfab-data/processing/models/1ff60ef1627047a7adfe47357b5822d1/1bc4f5a45eec4aee92459e12d357afda/a35c63e651b540c8a18580e984240c0d/preprocess/SubTool-2-2963210.OBJ"
    },
    {
      "mesh": 3,
      "name": "Object_9"
    },
    {
      "children": [
        11,
        12
      ],
      "name": "/sketchfab-data/processing/models/1ff60ef1627047a7adfe47357b5822d1/1bc4f5a45eec4aee92459e12d357afda/a35c63e651b540c8a18580e984240c0d/preprocess/SubTool-1-135988.OBJ"
    },
    {
      "mesh": 4,
      "name": "Object_11"
    },
    {
      "mesh": 5,
      "name": "Object_12"
    },
    {
      "children": [
        14
      ],
      "name": "/sketchfab-data/processing/models/1ff60ef1627047a7adfe47357b5822d1/1bc4f5a45eec4aee92459e12d357afda/a35c63e651b540c8a18580e984240c0d/preprocess/SubTool-0-10233600.OBJ"
    },
    {
      "mesh": 6,
      "name": "Object_14"
    }
  ],
  "scene": 0,
  "scenes": [
    {
      "name": "Sketchfab_Scene",
      "nodes": [
        0
      ]
    }
  ]
}
